<?xml version="1.0" encoding="utf-8"?>
<!-- Generator: Adobe Illustrator 24.1.1, SVG Export Plug-In . SVG Version: 6.00 Build 0)  -->
<svg version="1.1" id="Layer_1" xmlns="http://www.w3.org/2000/svg" xmlns:xlink="http://www.w3.org/1999/xlink" x="0px" y="0px"
	 viewBox="0 0 481.89 170.08" style="enable-background:new 0 0 481.89 170.08;" xml:space="preserve">
<style type="text/css">
	.st0{fill:none;stroke:#C3A461;stroke-width:4.1693;stroke-miterlimit:10;}
	.st1{fill:none;stroke:#C3A461;stroke-width:3.1568;stroke-miterlimit:10;}
	.st2{fill:#FFFFFF;}
</style>
<g>
	<polygon class="st0" points="345,49.29 411.15,13.85 477.29,49.29 477.29,120.15 411.15,155.59 345,120.15 	"/>
	<polyline class="st1" points="423.96,121.2 462.35,67.1 462.35,121.2 	"/>
	<line class="st1" x1="463.05" y1="49.12" x2="413.66" y2="120.5"/>
	<path class="st1" d="M360.95,115.09c0,0,28.44,19.02,34.73-9.42V50.52l34.01,46.81"/>
</g>
<g>
	<g>
		<path class="st2" d="M19.88,88.36h6.35v21.29c0,9.06-4.65,12.08-11.57,12.08c-1.76,0-3.98-0.29-5.32-0.78l0.77-4.82
			c1.03,0.29,2.43,0.58,3.92,0.58c3.61,0,5.83-1.56,5.83-7.26V88.36z"/>
		<path class="st2" d="M67.75,107.8c-0.21-4.24-0.46-9.35-0.41-13.79h-0.15c-1.14,4-2.58,8.43-4.13,12.57l-5.06,14.23h-4.91
			l-4.65-14.03c-1.34-4.19-2.58-8.67-3.51-12.76h-0.1c-0.15,4.29-0.36,9.5-0.62,13.98l-0.77,13.2h-5.94l2.32-32.84h8.37l4.54,13.2
			c1.24,3.85,2.32,7.75,3.2,11.4h0.15c0.93-3.56,2.12-7.6,3.46-11.45l4.8-13.15h8.26l2.01,32.84h-6.2L67.75,107.8z"/>
		<path class="st2" d="M108.44,88.36v13.15h14.72V88.36h6.35v32.84h-6.35v-14.47h-14.72v14.47h-6.35V88.36H108.44z"/>
		<path class="st2" d="M165.61,109.12c0,8.72-6.51,12.62-12.91,12.62c-7.13,0-12.6-4.63-12.6-12.23c0-7.79,5.42-12.57,13.01-12.57
			C160.6,96.94,165.61,101.9,165.61,109.12z M146.66,109.36c0,4.58,2.38,8.04,6.25,8.04c3.61,0,6.15-3.36,6.15-8.14
			c0-3.7-1.76-7.94-6.09-7.94C148.46,101.32,146.66,105.41,146.66,109.36z"/>
		<path class="st2" d="M175.99,86.61h6.4v34.59h-6.4V86.61z"/>
		<path class="st2" d="M217.61,86.61v27.92c0,2.44,0.1,5.07,0.21,6.67h-5.68l-0.26-3.75h-0.1c-1.5,2.63-4.54,4.29-8.21,4.29
			c-5.99,0-10.74-4.82-10.74-12.13c-0.05-7.94,5.22-12.67,11.26-12.67c3.46,0,5.94,1.36,7.07,3.12h0.1V86.61H217.61z M211.26,107.36
			c0-0.49-0.05-1.07-0.15-1.56c-0.57-2.34-2.58-4.24-5.47-4.24c-4.08,0-6.35,3.41-6.35,7.84c0,4.34,2.27,7.5,6.3,7.5
			c2.58,0,4.85-1.66,5.47-4.24c0.15-0.54,0.21-1.12,0.21-1.75V107.36z"/>
		<path class="st2" d="M236.36,90.85c0,1.8-1.39,3.22-3.61,3.22c-2.12,0-3.51-1.41-3.51-3.22c0-1.85,1.45-3.26,3.56-3.26
			C234.97,87.58,236.31,88.99,236.36,90.85z M229.59,121.2V97.47h6.4v23.73H229.59z"/>
		<path class="st2" d="M247.98,104.54c0-2.73-0.05-5.02-0.21-7.06h5.58l0.31,3.56h0.16c1.08-1.85,3.82-4.09,8-4.09
			c4.39,0,8.93,2.68,8.93,10.18v14.08h-6.35v-13.4c0-3.41-1.34-5.99-4.8-5.99c-2.53,0-4.29,1.71-4.96,3.51
			c-0.21,0.54-0.26,1.27-0.26,1.95v13.93h-6.4V104.54z"/>
		<path class="st2" d="M305.66,97.47c-0.1,1.61-0.21,3.56-0.21,6.82v13.45c0,4.97-1.08,8.53-3.72,10.77
			c-2.63,2.19-6.25,2.87-9.71,2.87c-3.2,0-6.61-0.63-8.78-1.9l1.39-4.53c1.6,0.88,4.29,1.8,7.33,1.8c4.13,0,7.23-2.05,7.23-7.16
			v-2.05h-0.1c-1.45,2.09-4.03,3.51-7.33,3.51c-6.25,0-10.69-4.87-10.69-11.6c0-7.79,5.37-12.52,11.41-12.52
			c3.82,0,6.09,1.75,7.28,3.7h0.1l0.26-3.17H305.66z M299.1,106.97c0-0.54-0.05-1.12-0.21-1.61c-0.67-2.19-2.48-3.85-5.16-3.85
			c-3.56,0-6.2,2.92-6.2,7.75c0,4.04,2.17,7.31,6.14,7.31c2.38,0,4.44-1.46,5.16-3.61c0.15-0.63,0.26-1.46,0.26-2.14V106.97z"/>
	</g>
</g>
<g>
	<g>
		<path class="st2" d="M22.02,38.55v-2.18c0-0.35,0.15-0.51,0.51-0.51h4.66c0.35,0,0.51,0.15,0.51,0.51v16.41
			c0,2.03,0.76,2.68,2.43,2.68h1.92c1.37,0,2.03,0.86,2.03,2.53c0,2.03-0.61,2.48-2.03,2.48h-4.1c-3.29,0-5.12-1.01-5.72-3.9
			c-1.42,1.22-3.44,1.82-5.62,1.82c-5.27,0-9.57-2.89-9.57-9.57c0-7.85,4.86-10.28,9.93-10.28H22.02z M12.35,32.37
			c-0.35,0-0.51-0.15-0.51-0.51v-4.36c0-0.35,0.15-0.51,0.51-0.51h4.25c0.35,0,0.51,0.15,0.51,0.51v4.36c0,0.35-0.15,0.51-0.51,0.51
			H12.35z M22.02,47.92v-4.3h-4.51c-2.89,0-4.81,1.22-4.81,5.22c0,3.09,1.72,4.56,4.56,4.56C20.45,53.39,22.02,51.57,22.02,47.92z
			 M18.93,32.37c-0.35,0-0.51-0.15-0.51-0.51v-4.36c0-0.35,0.15-0.51,0.51-0.51h4.25c0.35,0,0.51,0.15,0.51,0.51v4.36
			c0,0.35-0.15,0.51-0.51,0.51H18.93z"/>
		<path class="st2" d="M32.66,60.48c-1.37,0-1.77-0.56-1.77-2.38c0-2.03,0.35-2.63,1.77-2.63h6.08c1.37,0,2.03,0.66,2.03,2.48
			c0,2.08-0.61,2.53-2.03,2.53H32.66z"/>
		<path class="st2" d="M38.73,60.48c-1.37,0-1.77-0.56-1.77-2.38c0-2.03,0.35-2.63,1.77-2.63h6.08c1.37,0,2.03,0.66,2.03,2.48
			c0,2.08-0.61,2.53-2.03,2.53H38.73z"/>
		<path class="st2" d="M55.65,41.39c3.24-1.57,7.14-2.84,11.24-2.84c8.81,0,12.36,4.76,12.36,12.1c0,0.66-0.05,1.27-0.05,1.67
			c0.05,2.03,1.62,3.14,4.2,3.14h0.86c1.37,0,2.03,0.66,2.03,2.43c0,1.98-0.61,2.58-2.03,2.58c-2.89,0-5.22-0.61-6.28-3.19
			c-1.42,2.68-4.05,3.19-8.51,3.19H59.5c-2.08,0-4.76-0.05-6.13-0.86c-1.06,0.76-2.33,0.86-4.1,0.86h-4.2
			c-1.37,0-2.03-0.51-2.03-2.38c0-2.18,0.61-2.63,2.03-2.63h2.33c2.53,0,2.53-2.38,2.53-5.27V39.77c0-0.35,0.15-0.51,0.51-0.51h4.71
			c0.35,0,0.51,0.15,0.51,0.51V41.39z M55.65,46.35v6.89c0,0.81-0.05,1.57-0.2,2.23h10.99c5.82,0,6.84,0,6.84-5.06
			c0-4.3-1.57-6.79-7.19-6.79C62.23,43.62,58.48,44.98,55.65,46.35z M64,34.4c-0.35,0-0.51-0.15-0.51-0.51v-4.36
			c0-0.35,0.15-0.51,0.51-0.51h4.86c0.35,0,0.51,0.15,0.51,0.51v4.36c0,0.35-0.15,0.51-0.51,0.51H64z"/>
		<path class="st2" d="M84.01,60.48c-1.37,0-2.03-0.35-2.03-1.77c0-1.67,0.61-3.24,2.03-3.24h2.48c1.67,0,2.43-0.66,2.43-2.68V39.97
			c0-0.35,0.15-0.51,0.51-0.51h4.71c0.35,0,0.51,0.15,0.51,0.51V54.1c0,4.46-1.67,6.38-5.93,6.38H84.01z M88.51,70.1
			c-0.35,0-0.51-0.15-0.51-0.51v-4.35c0-0.35,0.15-0.51,0.51-0.51h4.86c0.35,0,0.51,0.15,0.51,0.51v4.35c0,0.35-0.15,0.51-0.51,0.51
			H88.51z"/>
		<path class="st2" d="M101.22,26.55c0-0.35,0.15-0.51,0.51-0.51h4.71c0.35,0,0.51,0.15,0.51,0.51v26.23c0,2.03,0.76,2.68,2.43,2.68
			h1.77c1.37,0,2.03,0.71,2.03,2.58c0,2.08-0.61,2.43-2.03,2.43h-4c-4.25,0-5.93-1.92-5.93-6.38V26.55z"/>
		<path class="st2" d="M111.15,60.48c-1.37,0-1.77-0.56-1.77-2.38c0-2.03,0.35-2.63,1.77-2.63h6.08c1.37,0,2.03,0.66,2.03,2.48
			c0,2.08-0.61,2.53-2.03,2.53H111.15z"/>
		<path class="st2" d="M117.23,60.48c-1.37,0-1.77-0.56-1.77-2.38c0-2.03,0.35-2.63,1.77-2.63h6.08c1.37,0,2.03,0.66,2.03,2.48
			c0,2.08-0.61,2.53-2.03,2.53H117.23z"/>
		<path class="st2" d="M147.56,47.57c0,3.29-1.62,6.13-4.2,7.9h7.19c1.37,0,2.03,0.51,2.03,2.38c0,1.98-0.61,2.63-2.03,2.63h-7.04
			c-2.43,0-4.56,0-6.53-1.22c-2.23,1.22-4.96,1.22-6.94,1.22h-6.74c-1.37,0-2.03-0.76-2.03-2.58c0-1.98,0.61-2.43,2.03-2.43h7.14
			c-2.48-1.77-4.15-4.61-4.15-7.9c0-5.47,3.7-9.01,10.64-9.01C143.86,38.55,147.56,42.1,147.56,47.57z M131.71,34.4
			c-0.35,0-0.51-0.15-0.51-0.51v-4.36c0-0.35,0.15-0.51,0.51-0.51h4.25c0.35,0,0.51,0.15,0.51,0.51v4.36c0,0.35-0.15,0.51-0.51,0.51
			H131.71z M132.06,47.97c0,3.44,2.18,5.47,4.86,6.63c2.63-1.17,4.81-3.19,4.81-6.63c0-3.24-2.18-4.91-4.81-4.91
			C134.29,43.06,132.06,44.73,132.06,47.97z M138.29,34.4c-0.35,0-0.51-0.15-0.51-0.51v-4.36c0-0.35,0.15-0.51,0.51-0.51h4.25
			c0.35,0,0.51,0.15,0.51,0.51v4.36c0,0.35-0.15,0.51-0.51,0.51H138.29z"/>
		<path class="st2" d="M150.55,60.48c-1.37,0-2.03-0.46-2.03-2.43c0-1.87,0.61-2.58,2.03-2.58h2.48c1.67,0,2.43-0.66,2.43-2.68
			V26.55c0-0.35,0.15-0.51,0.51-0.51h4.71c0.35,0,0.51,0.15,0.51,0.51V54.1c0,4.46-1.67,6.38-5.93,6.38H150.55z"/>
		<path class="st2" d="M173.49,59.98c0,0.35-0.15,0.51-0.51,0.51h-4.71c-0.35,0-0.51-0.15-0.51-0.51V26.55
			c0-0.35,0.15-0.51,0.51-0.51h4.71c0.35,0,0.51,0.15,0.51,0.51V59.98z"/>
		<path class="st2" d="M198.96,57.85c-1.06,1.72-3.24,1.32-3.24,4.46v8.41H190v-9.47c0-6.53,5.93-5.47,6.33-9.22
			c-0.05-0.66-0.1-1.37-0.1-2.18c0-8.31,4.46-11.29,10.43-11.29c5.98,0,10.43,2.99,10.43,11.29c0,7.9-4.31,10.99-10.43,10.99
			C203.37,60.84,200.73,59.92,198.96,57.85z M201.85,49.75c0,4.3,1.57,6.08,4.81,6.08s4.76-1.82,4.76-6.08
			c0-4.1-1.57-6.13-4.76-6.13C203.47,43.62,201.85,45.64,201.85,49.75z"/>
		<path class="st2" d="M228.69,59.98c0,0.35-0.15,0.51-0.51,0.51h-4.71c-0.35,0-0.51-0.15-0.51-0.51V26.55
			c0-0.35,0.15-0.51,0.51-0.51h4.71c0.35,0,0.51,0.15,0.51,0.51V59.98z"/>
		<path class="st2" d="M269.51,65.55c4.05,0,5.27-1.11,5.27-2.68c0-2.58-3.09-3.34-10.03-5.93c-0.3-0.1-0.41-0.3-0.3-0.61l1.37-4
			c0.1-0.35,0.3-0.46,0.61-0.35c4.3,1.62,7.75,3.49,11.6,3.49h5.06c1.37,0,2.03,0.56,2.03,2.33c0,1.98-0.61,2.68-2.03,2.68h-3.49
			c0.35,0.56,0.91,1.82,0.91,3.19c0,3.75-2.79,7.04-10.03,7.04h-11.55c-8.76,0-13.01-4.36-13.01-11.29c0-3.75,1.57-7.9,3.29-10.28
			c0.15-0.25,0.41-0.3,0.71-0.1l4,2.08c0.25,0.15,0.3,0.41,0.15,0.66c-1.17,1.87-2.33,4.51-2.33,7.14c0,5.06,4,6.63,7.9,6.63H269.51
			z M258.16,79.57c-0.35,0-0.51-0.15-0.51-0.51v-4.36c0-0.35,0.15-0.51,0.51-0.51h4.25c0.35,0,0.51,0.15,0.51,0.51v4.36
			c0,0.35-0.15,0.51-0.51,0.51H258.16z M264.74,79.57c-0.35,0-0.51-0.15-0.51-0.51v-4.36c0-0.35,0.15-0.51,0.51-0.51H269
			c0.35,0,0.51,0.15,0.51,0.51v4.36c0,0.35-0.15,0.51-0.51,0.51H264.74z"/>
		<path class="st2" d="M283.08,60.48c-1.37,0-2.03-0.71-2.03-2.53c0-1.98,0.61-2.48,2.03-2.48h13.47c3.49,0,4.15-1.01,4.15-4.3
			c0-4.36-1.47-7.55-6.03-7.55c-2.23,0-4.05,0.96-5.47,2.43c-0.25,0.25-0.46,0.25-0.71,0.05l-2.63-2.73
			c-0.25-0.25-0.3-0.51-0.1-0.71c2.08-2.38,4.81-4.1,9.06-4.1c9.07,0,11.85,5.93,11.85,12.76c0,7.29-2.68,9.17-7.95,9.17H283.08z
			 M293.15,70.1c-0.35,0-0.51-0.15-0.51-0.51v-4.35c0-0.35,0.15-0.51,0.51-0.51h4.86c0.35,0,0.51,0.15,0.51,0.51v4.35
			c0,0.35-0.15,0.51-0.51,0.51H293.15z"/>
	</g>
</g>
</svg>
