<svg id="Group_15" data-name="Group 15" xmlns="http://www.w3.org/2000/svg" xmlns:xlink="http://www.w3.org/1999/xlink" width="200" height="62.02" viewBox="0 0 200 62.02">
  <defs>
    <clipPath id="clip-path">
      <rect id="Rectangle_7" data-name="Rectangle 7" width="200" height="62.02" fill="none"/>
    </clipPath>
  </defs>
  <g id="Group_12" data-name="Group 12">
    <g id="Group_11" data-name="Group 11" clip-path="url(#clip-path)">
      <path id="Path_45" data-name="Path 45" d="M393.975,17.371,365.966,2.365,337.96,17.371v30l28.006,15.006,28.01-15.006Z" transform="translate(-337.077 -1.364)" fill="none" stroke="#c3a461" stroke-width="4.169"/>
    </g>
  </g>
  <path id="Path_46" data-name="Path 46" d="M416.92,78.522l16.255-22.907V78.522" transform="translate(-383.646 -32.066)" fill="none" stroke="#c3a461" stroke-width="3.157"/>
  <line id="Line_3" data-name="Line 3" x1="20.913" y2="30.224" transform="translate(28.913 15.936)" fill="none" stroke="#c3a461" stroke-width="3.157"/>
  <g id="Group_14" data-name="Group 14">
    <g id="Group_13" data-name="Group 13" clip-path="url(#clip-path)">
      <path id="Path_47" data-name="Path 47" d="M353.91,66.376s12.042,8.054,14.706-3.989V39.035l14.4,19.821" transform="translate(-347.872 -22.506)" fill="none" stroke="#c3a461" stroke-width="3.157"/>
      <path id="Path_48" data-name="Path 48" d="M6.763,76.875H9.452V85.89c0,3.836-1.969,5.115-4.9,5.115a7.5,7.5,0,0,1-2.253-.33l.326-2.041a6.247,6.247,0,0,0,1.66.246c1.529,0,2.469-.661,2.469-3.074v-8.93Z" transform="translate(71.256 -54.319)"/>
      <path id="Path_49" data-name="Path 49" d="M43.269,85.106c-.089-1.8-.195-3.959-.174-5.839h-.064c-.483,1.694-1.092,3.569-1.749,5.322L39.14,90.615H37.061l-1.969-5.941C34.525,82.9,34,81,33.606,79.272h-.042c-.064,1.816-.152,4.023-.263,5.92l-.326,5.589H30.46l.982-13.905h3.544l1.922,5.589c.525,1.63.982,3.282,1.355,4.827h.064c.394-1.507.9-3.218,1.465-4.848l2.032-5.568h3.5l.851,13.905H43.548Z" transform="translate(55.02 -54.319)"/>
      <path id="Path_50" data-name="Path 50" d="M97.739,76.875v5.568h6.233V76.875h2.689V90.78h-2.689V84.653H97.739V90.78H95.05V76.875Z" transform="translate(16.753 -54.095)"/>
      <path id="Path_51" data-name="Path 51" d="M143.862,90.612c0,3.692-2.757,5.344-5.466,5.344a5,5,0,0,1-5.335-5.179c0-3.3,2.295-5.322,5.509-5.322a4.96,4.96,0,0,1,5.293,5.157m-8.024.1c0,1.939,1.008,3.4,2.646,3.4,1.529,0,2.6-1.423,2.6-3.447,0-1.567-.745-3.362-2.579-3.362-1.91,0-2.672,1.732-2.672,3.4" transform="translate(-5.163 -59.042)"/>
      <rect id="Rectangle_8" data-name="Rectangle 8" width="2.71" height="14.646" transform="translate(143.094 22.039)"/>
      <path id="Path_52" data-name="Path 52" d="M196.282,75.125V86.947c0,1.033.042,2.147.089,2.824h-2.405l-.11-1.588h-.042A3.885,3.885,0,0,1,190.337,90c-2.536,0-4.548-2.041-4.548-5.136C185.769,81.5,188,79.5,190.558,79.5a3.451,3.451,0,0,1,2.994,1.321h.042v-5.7Zm-2.689,8.786a3.49,3.49,0,0,0-.064-.661,2.324,2.324,0,0,0-2.316-1.8c-1.728,0-2.689,1.444-2.689,3.32,0,1.838.961,3.176,2.668,3.176a2.344,2.344,0,0,0,2.316-1.8,2.757,2.757,0,0,0,.089-.741v-1.5Z" transform="translate(-35.565 -53.086)"/>
      <path id="Path_53" data-name="Path 53" d="M225.215,77.485a1.391,1.391,0,0,1-1.529,1.363,1.375,1.375,0,0,1-1.486-1.363,1.513,1.513,0,0,1,3.015,0m-2.867,2.8h2.71V90.336h-2.71Z" transform="translate(-56.558 -53.651)"/>
      <path id="Path_54" data-name="Path 54" d="M240.819,88.679c0-1.156-.021-2.126-.089-2.989h2.363l.131,1.507h.068a3.885,3.885,0,0,1,3.387-1.732c1.859,0,3.781,1.135,3.781,4.31v5.962h-2.689V90.063c0-1.444-.567-2.536-2.032-2.536a2.245,2.245,0,0,0-2.1,1.486,2.424,2.424,0,0,0-.11.826v5.9h-2.71Z" transform="translate(-67.242 -59.048)"/>
      <path id="Path_55" data-name="Path 55" d="M284.442,85.674c-.042.682-.089,1.507-.089,2.888v5.7c0,2.1-.457,3.612-1.575,4.56a6.38,6.38,0,0,1-4.111,1.215,7.893,7.893,0,0,1-3.718-.8l.589-1.918a6.716,6.716,0,0,0,3.1.762A2.751,2.751,0,0,0,281.7,95.04v-.868h-.042a3.671,3.671,0,0,1-3.1,1.486c-2.646,0-4.526-2.062-4.526-4.912,0-3.3,2.274-5.3,4.831-5.3a3.4,3.4,0,0,1,3.083,1.567h.042l.11-1.342h2.346ZM281.664,89.7a2.266,2.266,0,0,0-.089-.682,2.211,2.211,0,0,0-2.185-1.63c-1.507,0-2.625,1.236-2.625,3.282,0,1.711.919,3.1,2.6,3.1a2.278,2.278,0,0,0,2.185-1.529,4.244,4.244,0,0,0,.11-.906V89.7Z" transform="translate(-86.442 -59.036)"/>
    </g>
  </g>
</svg>
